# xmcd CD database file
#
# Track frame offsets:
#	150
#	20020
#	38746
#	51731
#	63804
#	73312
#	85803
#	100989
#	121413
#	132142
#	147773
#	164786
#	171414
#	189525
#	205632
#	215157
#	226427
#	240922
#
# Disc length: 3538 seconds
#
# Revision: 0
# Processed by: cddbd v1.5.2PL0 Copyright (c) Steve Scherf et al.
# Submitted via: CDex 1.51
#
DISCID=0f0dd012
DTITLE=Franck Avitabile - Short stories
DYEAR=2006
DGENRE=Jazz
TTITLE0=Arabesque
TTITLE1=Chilhood Memory
TTITLE2=Reverso
TTITLE3=Twisted Nerve
TTITLE4=Cat Tale
TTITLE5=The Third Eye
TTITLE6=French Song
TTITLE7=Medley
TTITLE8=Little Monkey
TTITLE9=Rhapsody
TTITLE10=Inside Out
TTITLE11=Rolling
TTITLE12=There is no greater love
TTITLE13=Musings
TTITLE14=Shortly After Midnight
TTITLE15=The Twilight Hours
TTITLE16=On Walking
TTITLE17=Over the Raimbow
EXTD=YEAR: 2006
EXTT0=
EXTT1=
EXTT2=
EXTT3=
EXTT4=
EXTT5=
EXTT6=
EXTT7=
EXTT8=
EXTT9=
EXTT10=
EXTT11=
EXTT12=
EXTT13=
EXTT14=
EXTT15=
EXTT16=
EXTT17=
PLAYORDER=
